<svg width="44" height="39" viewBox="0 0 44 39" fill="none" xmlns="http://www.w3.org/2000/svg">
<ellipse cx="22" cy="30.5" rx="21" ry="7.5" fill="#D97238" stroke="black" stroke-width="0.226994"/>
<ellipse cx="21.9149" cy="9.17238" rx="21.3374" ry="4.76687" fill="#BD6837" stroke="black" stroke-width="0.226994"/>
<path d="M14.4231 1C5.70655 1 3.22475 7.80981 3.07342 11.2147C2.27894 17.1165 4.77587 29.1245 21.1194 29.9417C37.463 30.7589 42.4568 16.7761 38.8249 15.1871C35.193 13.5981 37.5765 14.8466 32.8096 13.1442C28.0427 11.4417 23.1397 1 14.4231 1Z" fill="white" stroke="black" stroke-width="0.226994"/>
<g style="mix-blend-mode:multiply">
<path d="M25.7725 11.2145C20.9377 14.9117 7.04554 11.2145 5.3431 16.7758C4.66079 21.3067 5.1002 28.7201 19.1363 29.3475C33.1724 29.9748 37.6291 25.9515 34.3421 18.0202C32.3729 13.2689 27.702 9.73899 25.7725 11.2145Z" fill="#D9D9D9" fill-opacity="0.7"/>
<path d="M25.7725 11.2145C20.9377 14.9117 7.04554 11.2145 5.3431 16.7758C4.66079 21.3067 5.1002 28.7201 19.1363 29.3475C33.1724 29.9748 37.6291 25.9515 34.3421 18.0202C32.3729 13.2689 27.702 9.73899 25.7725 11.2145Z" stroke="white" stroke-width="0.226994"/>
</g>
<g style="mix-blend-mode:multiply">
<ellipse cx="21.5" cy="30.5" rx="13.5" ry="4.5" fill="#D9D9D9" fill-opacity="0.7"/>
</g>
<path d="M11.3583 4.17748L11.1313 4.40447M15.3307 3.15601H15.5577M13.2878 4.29097C13.4013 4.06398 13.7418 3.72349 14.3093 3.95048L13.2878 4.29097Z" stroke="black" stroke-width="0.226994" stroke-linecap="round" stroke-linejoin="round"/>
<g style="mix-blend-mode:multiply">
<ellipse cx="21.4596" cy="10.5338" rx="19.7484" ry="3.4049" fill="#6C4700" fill-opacity="0.85"/>
</g>
<path d="M21.9143 31.6445C3.73284 31.6445 0.917423 17.7979 0.69043 9.17212C0.69043 9.17212 1.71196 14.393 22.7088 13.8255C42.0802 13.3019 43.0968 9.78366 43.1382 9.24205C43.1382 9.2187 43.1382 9.19539 43.1382 9.17212C43.1382 9.17212 43.1416 9.19661 43.1382 9.24205C43.1223 17.6072 40.2496 31.6445 21.9143 31.6445Z" fill="#DE7A41"/>
<path d="M0.69043 9.17212C0.917423 17.7979 3.73284 31.6445 21.9143 31.6445C40.3008 31.6445 43.1382 17.5287 43.1382 9.17212C43.1382 9.17212 43.7057 13.258 22.7088 13.8255C1.71196 14.393 0.69043 9.17212 0.69043 9.17212Z" stroke="black" stroke-width="0.226994"/>
<path d="M26.0123 7.50004C26.0392 9.04414 21.623 11.327 15.2547 11.4382C8.88638 11.5494 3.53921 10.544 3.51225 8.99991C4.01221 7.5 6.144 6.11116 12.5123 6C18.8806 5.88884 25.0123 6.00004 26.0123 7.50004Z" fill="white"/>
</svg>
