<svg width="35" height="35" viewBox="0 0 35 35" fill="none" xmlns="http://www.w3.org/2000/svg">
<g filter="url(#filter0_di_4_37)">
<rect x="1" y="1" width="32" height="32" rx="16" fill="white"/>
<path d="M10.3394 11.6946C10.5847 11.2624 11.027 10.9888 11.4114 10.6909C12.2146 10.0684 13.0937 9.57397 14.0335 9.1775C14.6728 8.9078 15.9474 8.55091 16.6478 8.86221C16.7496 8.90744 16.6575 9.44141 16.6478 9.51907C16.5718 10.1277 16.3084 10.8632 16.0619 11.4266C15.8893 11.8212 15.7239 12.2359 15.589 12.6405" stroke="#494949" stroke-linecap="round"/>
<path d="M15.6836 12.735C16.3123 12.777 17.0658 12.7228 17.6699 12.9242" stroke="#494949" stroke-linecap="round"/>
<path d="M17.8591 13.0189C18.4359 12.6343 19.1508 12.4203 19.7719 12.1098C21.2765 11.3575 23.9397 9.36544 25.4892 9.52437C25.8029 9.55654 25.9239 10.0465 25.9727 10.3021C26.1692 11.3317 25.6247 12.0845 25.3211 13.0189C25.2295 13.3005 24.6719 14.3896 24.3857 14.485" stroke="#494949" stroke-linecap="round"/>
<path d="M10.1029 12.1202C9.72675 12.0539 9.04442 12.6662 8.76291 12.8559C8.14515 13.2723 7.56057 13.85 7.13653 14.4587C6.56302 15.2819 6.37689 16.1178 6.52959 17.1019C6.66734 17.9896 7.05746 19.0352 7.45445 19.8292C7.65607 20.2324 8.03679 20.5407 8.16385 20.9642" stroke="#494949" stroke-linecap="round"/>
<path d="M12.515 14.5322L12.4204 15.2889" stroke="#494949" stroke-linecap="round"/>
<path d="M18.5685 14.9106C18.5685 15.0711 18.5439 15.2252 18.5212 15.3835" stroke="#494949" stroke-linecap="round"/>
<path d="M13.7917 15.8565C13.7917 16.0913 13.8223 16.1875 14.0755 16.1875C14.4374 16.1875 14.7122 15.6034 14.9531 15.3625C14.9918 15.3238 15.2911 15.8219 15.4103 15.8775C15.555 15.945 15.6874 16.1087 15.8464 16.1376C16.0529 16.1751 16.3375 15.7569 16.4402 15.62" stroke="#494949" stroke-linecap="round"/>
<path d="M24.5 14.5C24.9821 15.049 25.8474 16.7646 25.4761 17.538C25.2812 17.9442 24.9933 18.3263 24.7194 18.6915C24.6362 18.8023 24.6167 18.9291 24.5171 19.0357C24.3642 19.1992 24.2032 19.3693 24.0652 19.5454C23.8909 19.7678 23.7143 19.9916 23.5344 20.2075" stroke="#494949" stroke-linecap="round"/>
<path d="M23.5344 20.2075C24.1609 21.8266 24.8374 23.423 25.6127 24.9737C25.8734 25.4951 26.0406 26.0802 26.1461 26.6605C26.3321 27.6837 26.4499 28.6792 26.2775 29.7136" stroke="#494949" stroke-linecap="round"/>
<path d="M8.06929 21.4371C7 23.5 5.70459 25.6617 5.70459 28.1056" stroke="#494949" stroke-linecap="round"/>
<path d="M4.1438 14.0593C5.06588 14.259 5.91788 14.7249 6.85532 14.8528C7.17896 14.8969 7.50652 14.9106 7.83273 14.9106" stroke="#494949" stroke-linecap="round"/>
<path d="M3.198 17.0861C4.39315 16.9806 5.61494 16.7432 6.81861 16.8049C7.09509 16.8191 7.36599 16.8496 7.64363 16.8496" stroke="#494949" stroke-linecap="round"/>
<path d="M23.7708 16.424C25.3108 16.53 26.8276 16.6885 28.3583 16.8496" stroke="#494949" stroke-linecap="round"/>
<path d="M23.156 18.032C24.8115 18.7098 26.3828 19.7346 28.2165 19.7346" stroke="#494949" stroke-linecap="round"/>
</g>
<defs>
<filter id="filter0_di_4_37" x="0.5" y="0.5" width="34" height="34" filterUnits="userSpaceOnUse" color-interpolation-filters="sRGB">
<feFlood flood-opacity="0" result="BackgroundImageFix"/>
<feColorMatrix in="SourceAlpha" type="matrix" values="0 0 0 0 0 0 0 0 0 0 0 0 0 0 0 0 0 0 127 0" result="hardAlpha"/>
<feOffset dx="0.5" dy="0.5"/>
<feGaussianBlur stdDeviation="0.5"/>
<feComposite in2="hardAlpha" operator="out"/>
<feColorMatrix type="matrix" values="0 0 0 0 0 0 0 0 0 0 0 0 0 0 0 0 0 0 0.25 0"/>
<feBlend mode="normal" in2="BackgroundImageFix" result="effect1_dropShadow_4_37"/>
<feBlend mode="normal" in="SourceGraphic" in2="effect1_dropShadow_4_37" result="shape"/>
<feColorMatrix in="SourceAlpha" type="matrix" values="0 0 0 0 0 0 0 0 0 0 0 0 0 0 0 0 0 0 127 0" result="hardAlpha"/>
<feMorphology radius="1" operator="erode" in="SourceAlpha" result="effect2_innerShadow_4_37"/>
<feOffset dx="-0.5" dy="-0.5"/>
<feGaussianBlur stdDeviation="0.75"/>
<feComposite in2="hardAlpha" operator="arithmetic" k2="-1" k3="1"/>
<feColorMatrix type="matrix" values="0 0 0 0 0.262745 0 0 0 0 0.180392 0 0 0 0 0 0 0 0 0.1 0"/>
<feBlend mode="normal" in2="shape" result="effect2_innerShadow_4_37"/>
</filter>
</defs>
</svg>
